<svg width="100%" height="100%" viewBox="0 0 113 76" fill="none" xmlns="http://www.w3.org/2000/svg">
<path opacity="0.2" fill-rule="evenodd" clip-rule="evenodd" d="M31.0499 0.722285C32.3079 1.80055 32.4536 3.69445 31.3753 4.95243L4.72223 36.0477C3.75926 37.1712 3.75926 38.829 4.72223 39.9524L31.3753 71.0477C32.4536 72.3057 32.3079 74.1996 31.0499 75.2778C29.7919 76.3561 27.898 76.2104 26.8198 74.9524L0.166692 43.8572C-2.72223 40.4868 -2.72223 35.5133 0.166689 32.1429L26.8198 1.04768C27.898 -0.210297 29.7919 -0.355982 31.0499 0.722285ZM71.0499 0.722285C72.3079 1.80055 72.4536 3.69445 71.3753 4.95243L44.7222 36.0477C43.7593 37.1712 43.7593 38.829 44.7222 39.9524L71.3753 71.0477C72.4536 72.3057 72.3079 74.1996 71.0499 75.2778C69.7919 76.3561 67.898 76.2104 66.8198 74.9524L40.1667 43.8572C37.2778 40.4868 37.2778 35.5133 40.1667 32.1429L66.8198 1.04768C67.898 -0.210297 69.7919 -0.355982 71.0499 0.722285ZM111.375 4.95243C112.454 3.69445 112.308 1.80055 111.05 0.722285C109.792 -0.355982 107.898 -0.210297 106.82 1.04768L80.1667 32.1429C77.2778 35.5133 77.2778 40.4868 80.1667 43.8572L106.82 74.9524C107.898 76.2104 109.792 76.3561 111.05 75.2778C112.308 74.1996 112.454 72.3057 111.375 71.0477L84.7222 39.9524C83.7593 38.829 83.7593 37.1712 84.7222 36.0477L111.375 4.95243Z" fill="#0083E2"/>
</svg>
