<svg width="100%" height="100%" viewBox="0 0 219 226" fill="none" xmlns="http://www.w3.org/2000/svg">
<path opacity="0.2" d="M136.267 3.22857C136.267 1.72224 137.49 0.5 139 0.5C140.51 0.5 141.733 1.72224 141.733 3.22857V222.771C141.733 224.278 140.51 225.5 139 225.5C137.49 225.5 136.267 224.278 136.267 222.771V3.22857ZM113.64 35.5143C113.64 34.0079 114.862 32.7857 116.372 32.7857C117.882 32.7857 119.105 34.0079 119.105 35.5143V222.771C119.105 224.278 117.882 225.5 116.372 225.5C114.862 225.5 113.64 224.278 113.64 222.771V35.5143ZM91.0116 67.8C91.0116 66.2936 92.2346 65.0714 93.7442 65.0714C95.2538 65.0714 96.4767 66.2936 96.4767 67.8V222.771C96.4767 224.278 95.2538 225.5 93.7442 225.5C92.2346 225.5 91.0116 224.278 91.0116 222.771V67.8ZM68.3837 100.086C68.3837 98.5793 69.6067 97.3571 71.1163 97.3571C72.6259 97.3571 73.8488 98.5793 73.8488 100.086V222.771C73.8488 224.278 72.6259 225.5 71.1163 225.5C69.6067 225.5 68.3837 224.278 68.3837 222.771V100.086ZM45.7558 132.371C45.7558 130.865 46.9787 129.643 48.4884 129.643C49.998 129.643 51.2209 130.865 51.2209 132.371V222.771C51.2209 224.278 49.998 225.5 48.4884 225.5C46.9787 225.5 45.7558 224.278 45.7558 222.771V132.371ZM23.1279 164.657C23.1279 163.151 24.3508 161.929 25.8605 161.929C27.3701 161.929 28.593 163.151 28.593 164.657V222.771C28.593 224.278 27.3701 225.5 25.8605 225.5C24.3508 225.5 23.1279 224.278 23.1279 222.771V164.657ZM0.5 196.943C0.5 195.436 1.72293 194.214 3.23256 194.214C4.74218 194.214 5.96512 195.436 5.96512 196.943V222.771C5.96512 224.278 4.74219 225.5 3.23256 225.5C1.72293 225.5 0.5 224.278 0.5 222.771V196.943ZM274.767 194.214C276.277 194.214 277.5 195.436 277.5 196.943V222.771C277.5 224.278 276.277 225.5 274.767 225.5C273.258 225.5 272.035 224.278 272.035 222.771V196.943C272.035 195.436 273.258 194.214 274.767 194.214ZM252.14 161.929C253.649 161.929 254.872 163.151 254.872 164.657V222.771C254.872 224.278 253.649 225.5 252.14 225.5C250.63 225.5 249.407 224.278 249.407 222.771V164.657C249.407 163.151 250.63 161.929 252.14 161.929ZM229.512 129.643C231.021 129.643 232.244 130.865 232.244 132.371V222.771C232.244 224.278 231.021 225.5 229.512 225.5C228.002 225.5 226.779 224.278 226.779 222.771V132.371C226.779 130.865 228.002 129.643 229.512 129.643ZM206.884 97.3571C208.393 97.3571 209.616 98.5793 209.616 100.086V222.771C209.616 224.278 208.393 225.5 206.884 225.5C205.374 225.5 204.151 224.278 204.151 222.771V100.086C204.151 98.5793 205.374 97.3571 206.884 97.3571ZM184.256 65.0714C185.765 65.0714 186.988 66.2936 186.988 67.8V222.771C186.988 224.278 185.765 225.5 184.256 225.5C182.746 225.5 181.523 224.278 181.523 222.771V67.8C181.523 66.2936 182.746 65.0714 184.256 65.0714ZM161.628 32.7857C163.138 32.7857 164.36 34.0079 164.36 35.5143V222.771C164.36 224.278 163.138 225.5 161.628 225.5C160.118 225.5 158.895 224.278 158.895 222.771V35.5143C158.895 34.0079 160.118 32.7857 161.628 32.7857Z" fill="#0083E2" stroke="#0083E2"/>
</svg>
