<svg width="29" height="28" viewBox="0 0 29 28" fill="none" xmlns="http://www.w3.org/2000/svg">
<path d="M13.6614 0.790349C13.9346 0.133315 14.8654 0.133313 15.1387 0.790347L18.4444 8.73831C18.5596 9.0153 18.8201 9.20456 19.1192 9.22853L27.6996 9.91642C28.409 9.97329 28.6966 10.8585 28.1562 11.3214L21.6187 16.9214C21.3909 17.1166 21.2914 17.4228 21.361 17.7146L23.3583 26.0877C23.5234 26.7799 22.7704 27.327 22.1631 26.9561L14.817 22.4691C14.561 22.3127 14.239 22.3127 13.983 22.4691L6.63692 26.9561C6.02964 27.327 5.27664 26.7799 5.44175 26.0877L7.43904 17.7146C7.50865 17.4228 7.40915 17.1166 7.18132 16.9214L0.643886 11.3214C0.103456 10.8585 0.391076 9.97329 1.1004 9.91642L9.6809 9.22853C9.97993 9.20456 10.2404 9.0153 10.3556 8.73831L13.6614 0.790349Z" fill="#101828"/>
</svg>
