<svg  viewBox="0 0 45 46" fill="none" xmlns="http://www.w3.org/2000/svg">
<rect y="0.68837" width="44.26" height="44.6233" rx="7.97925" fill="#0083E2"/>
<path d="M8.01533 12.439C8.95335 12.6915 9.71098 12.896 10.18 13.0523C11.0459 13.3409 11.3345 13.4852 12.1282 13.8099L11.9478 37.3324H7.97925L8.01533 12.439Z" fill="white"/>
<path d="M13.0302 14.1521C13.0302 14.1521 14.2408 14.6919 15.1588 15.1984C16.205 15.7756 17.1791 16.4971 17.1791 16.4971L16.9611 37.3138H12.958L13.0302 14.1521Z" fill="white"/>
<path d="M8.01534 9.98509V11.6551C21.4723 15.2524 28.1938 25.8591 28.724 37.3317H31.6361C32.0792 24.1635 21.292 12.4023 8.01534 9.98509Z" fill="white"/>
<path d="M13.1383 8.66762V10.7962C27.2447 14.9812 33.1614 28.5823 32.8037 37.3131H36.2745C36.636 16.5223 21.2006 8.95588 13.1383 8.66762Z" fill="white"/>
</svg>
