<svg width="30" height="30" viewBox="0 0 30 30" fill="none" xmlns="http://www.w3.org/2000/svg">
<path fill-rule="evenodd" clip-rule="evenodd" d="M6.66667 30C4.89856 30 3.20286 29.2976 1.95262 28.0474C0.702379 26.7971 0 25.1014 0 23.3333C0 20.8783 2.22167 13.1 6.66667 0H10L6.66667 16.6667C8.43478 16.6667 10.1305 17.369 11.3807 18.6193C12.631 19.8695 13.3333 21.5652 13.3333 23.3333C13.3333 25.1014 12.631 26.7971 11.3807 28.0474C10.1305 29.2976 8.43478 30 6.66667 30ZM23.3333 30C21.5652 30 19.8695 29.2976 18.6193 28.0474C17.369 26.7971 16.6667 25.1014 16.6667 23.3333C16.6667 20.8783 18.8883 13.1 23.3333 0H26.6667L23.3333 16.6667C25.1014 16.6667 26.7971 17.369 28.0474 18.6193C29.2976 19.8695 30 21.5652 30 23.3333C30 25.1014 29.2976 26.7971 28.0474 28.0474C26.7971 29.2976 25.1014 30 23.3333 30Z" fill="#0083E2"/>
</svg>
